<?xml version="1.0" encoding="UTF-8"?><svg xmlns="http://www.w3.org/2000/svg" xmlns:xlink="http://www.w3.org/1999/xlink" width="627.75" zoomAndPan="magnify" viewBox="0 0 627.75 89.249998" height="89.249998" preserveAspectRatio="xMidYMid meet" version="1.0"><defs><clipPath id="clip-0"><path d="M 293 74 L 311 74 L 311 88.507812 L 293 88.507812 Z M 293 74 " clip-rule="nonzero"/></clipPath></defs><path stroke-linecap="butt" transform="matrix(0.705134, 0, 0, 0.703356, -18.254612, -0.863919)" fill="none" stroke-linejoin="miter" d="M 453.915289 12.968867 C 456.602058 12.968867 458.779171 10.791805 458.779171 8.103799 C 458.779171 5.421348 456.602058 3.244285 453.915289 3.244285 C 451.23406 3.244285 449.051407 5.421348 449.051407 8.103799 C 449.051407 10.791805 451.23406 12.968867 453.915289 12.968867 Z M 453.915289 12.968867 " stroke="rgb(40.388489%, 46.669006%, 53.329468%)" stroke-width="0.5" stroke-opacity="1" stroke-miterlimit="10"/><path stroke-linecap="butt" transform="matrix(0.705134, 0, 0, 0.703356, -18.254612, -0.863919)" fill="none" stroke-linejoin="miter" d="M 453.915289 18.100514 L 453.915289 108.887342 " stroke="rgb(40.388489%, 46.669006%, 53.329468%)" stroke-width="0.5" stroke-opacity="1" stroke-miterlimit="10"/><g clip-path="url(#clip-0)"><path stroke-linecap="butt" transform="matrix(0.705134, 0, 0, 0.703356, -18.254612, -0.863919)" fill="none" stroke-linejoin="miter" d="M 453.915289 123.749124 C 456.602058 123.749124 458.779171 121.566508 458.779171 118.884056 C 458.779171 116.196051 456.602058 114.018988 453.915289 114.018988 C 451.23406 114.018988 449.051407 116.196051 449.051407 118.884056 C 449.051407 121.566508 451.23406 123.749124 453.915289 123.749124 Z M 453.915289 123.749124 " stroke="rgb(40.388489%, 46.669006%, 53.329468%)" stroke-width="0.5" stroke-opacity="1" stroke-miterlimit="10"/></g></svg>