<?xml version="1.0" encoding="UTF-8"?><svg xmlns="http://www.w3.org/2000/svg" xmlns:xlink="http://www.w3.org/1999/xlink" contentScriptType="text/ecmascript" width="224.87999" zoomAndPan="magnify" contentStyleType="text/css" viewBox="0 0 224.87999 161.249994" height="161.249994" preserveAspectRatio="xMidYMid meet" version="1.0"><defs><clipPath id="clip-0"><path d="M 22.898438 86 L 37 86 L 37 160.503906 L 22.898438 160.503906 Z M 22.898438 86 " clip-rule="nonzero"/></clipPath><clipPath id="clip-1"><path d="M 188 86 L 202 86 L 202 160.503906 L 188 160.503906 Z M 188 86 " clip-rule="nonzero"/></clipPath><clipPath id="clip-2"><path d="M 179 39 L 202.066406 39 L 202.066406 55 L 179 55 Z M 179 39 " clip-rule="nonzero"/></clipPath><clipPath id="clip-3"><path d="M 81 155 L 88 155 L 88 160.503906 L 81 160.503906 Z M 81 155 " clip-rule="nonzero"/></clipPath><clipPath id="clip-4"><path d="M 108 155 L 115 155 L 115 160.503906 L 108 160.503906 Z M 108 155 " clip-rule="nonzero"/></clipPath></defs><path fill="rgb(79.60968%, 26.269531%, 29.798889%)" d="M 65.328125 107.019531 L 67.351562 110.160156 C 68.535156 112 70.574219 113.109375 72.761719 113.109375 L 120.382812 113.109375 C 122.496094 113.109375 124.472656 112.074219 125.671875 110.339844 L 127.976562 107.019531 L 65.328125 107.019531 " fill-opacity="1" fill-rule="nonzero"/><path fill="rgb(94.509888%, 30.589294%, 27.059937%)" d="M 97.617188 107.019531 L 127.976562 107.019531 C 127.976562 107.019531 139.710938 97.882812 140.679688 89.4375 C 141.648438 80.996094 132.007812 85.652344 127.976562 81.6875 C 123.941406 77.722656 124.890625 59.953125 132.367188 48.1875 C 139.847656 36.421875 144.867188 27.539062 96.652344 27.539062 C 96.652344 42.789062 96.652344 107.019531 96.652344 107.019531 L 97.617188 107.019531 " fill-opacity="1" fill-rule="nonzero"/><path fill="rgb(94.509888%, 30.589294%, 27.059937%)" d="M 95.6875 107.019531 L 65.328125 107.019531 C 65.328125 107.019531 53.59375 97.882812 52.625 89.4375 C 51.65625 80.996094 61.292969 85.652344 65.328125 81.6875 C 69.363281 77.722656 68.414062 59.953125 60.933594 48.1875 C 53.453125 36.421875 48.4375 27.539062 96.652344 27.539062 C 96.652344 42.789062 96.652344 107.019531 96.652344 107.019531 L 95.6875 107.019531 " fill-opacity="1" fill-rule="nonzero"/><path fill="rgb(79.60968%, 26.269531%, 29.798889%)" d="M 74.027344 87.363281 C 74.027344 87.363281 79.15625 73.242188 75.695312 60.644531 C 72.230469 48.046875 69.601562 42.789062 70.984375 37.941406 C 72.371094 33.097656 85.386719 32.410156 99.722656 32.683594 C 114.058594 32.960938 125.386719 35.148438 125.539062 39.175781 C 125.695312 43.203125 120.21875 50.859375 117.648438 63.722656 C 115.074219 76.589844 118.699219 90.683594 118.699219 90.683594 L 74.027344 87.363281 " fill-opacity="1" fill-rule="nonzero"/><path fill="rgb(42.349243%, 80.389404%, 75.689697%)" d="M 179.84375 54.140625 C 179.84375 54.140625 177.546875 48.515625 178.464844 41.925781 C 179.378906 35.335938 183.21875 27.539062 183.21875 27.539062 C 183.21875 27.539062 184.203125 35.339844 182.84375 42.285156 C 181.480469 49.226562 179.84375 54.140625 179.84375 54.140625 " fill-opacity="1" fill-rule="nonzero"/><path fill="rgb(42.349243%, 80.389404%, 75.689697%)" d="M 120.144531 85.101562 C 120.144531 85.101562 124.90625 85.332031 125.507812 91.054688 C 126.109375 96.777344 118.03125 99.226562 114.660156 100.421875 C 111.289062 101.621094 77.484375 99.917969 77.484375 99.917969 C 77.484375 99.917969 68.734375 97.8125 67.835938 91.375 C 66.933594 84.9375 74.691406 84.457031 74.691406 84.457031 L 120.144531 85.101562 " fill-opacity="1" fill-rule="nonzero"/><path fill="rgb(98.039246%, 72.549438%, 57.249451%)" d="M 117.234375 51.695312 C 117.234375 51.695312 128.5 63.121094 128.5 71.628906 C 128.5 80.132812 111.789062 75.964844 111.789062 75.964844 L 111.789062 72.457031 C 111.789062 72.457031 120.097656 73.011719 121.207031 70.890625 C 122.316406 68.765625 112.988281 57.785156 112.988281 57.785156 L 117.234375 51.695312 " fill-opacity="1" fill-rule="nonzero"/><path fill="rgb(98.039246%, 72.549438%, 57.249451%)" d="M 76.9375 52.554688 C 76.9375 52.554688 65.671875 63.984375 65.671875 72.488281 C 65.671875 80.996094 82.382812 76.828125 82.382812 76.828125 L 82.382812 73.320312 C 82.382812 73.320312 74.074219 73.875 72.964844 71.753906 C 71.859375 69.628906 81.183594 58.648438 81.183594 58.648438 L 76.9375 52.554688 " fill-opacity="1" fill-rule="nonzero"/><path fill="rgb(100%, 100%, 100%)" d="M 99.03125 45.554688 C 99.03125 45.554688 106.65625 46.339844 111.789062 48.371094 C 116.921875 50.402344 119.601562 53.449219 119.601562 53.449219 L 113.414062 60.921875 L 79.804688 61.753906 L 74.027344 54.183594 C 74.027344 54.183594 77.5625 50.46875 81.789062 48.464844 C 86.011719 46.457031 92.316406 46.234375 92.316406 46.234375 L 99.03125 45.554688 " fill-opacity="1" fill-rule="nonzero"/><path fill="rgb(98.039246%, 72.549438%, 57.249451%)" d="M 99.816406 25.257812 C 101.207031 32.683594 98.730469 40.566406 94.011719 41.441406 C 89.292969 42.3125 84.125 35.847656 82.734375 28.421875 C 81.34375 20.996094 84.253906 15.425781 88.972656 14.554688 C 93.691406 13.679688 98.425781 17.832031 99.816406 25.257812 " fill-opacity="1" fill-rule="nonzero"/><path fill="rgb(92.549133%, 87.059021%, 88.238525%)" d="M 27.621094 80.132812 L 195.957031 80.132812 C 197.660156 80.132812 199.039062 81.515625 199.039062 83.21875 C 199.039062 84.921875 197.660156 86.300781 195.957031 86.300781 L 27.621094 86.300781 C 25.917969 86.300781 24.539062 84.921875 24.539062 83.21875 C 24.539062 81.515625 25.917969 80.132812 27.621094 80.132812 " fill-opacity="1" fill-rule="nonzero"/><g clip-path="url(#clip-0)"><path fill="rgb(92.549133%, 87.059021%, 88.238525%)" d="M 29.398438 86.300781 L 22.925781 160.5 L 25.082031 160.5 L 36.035156 86.300781 L 29.398438 86.300781 " fill-opacity="1" fill-rule="nonzero"/></g><g clip-path="url(#clip-1)"><path fill="rgb(92.549133%, 87.059021%, 88.238525%)" d="M 194.660156 86.300781 L 201.132812 160.5 L 198.976562 160.5 L 188.019531 86.300781 L 194.660156 86.300781 " fill-opacity="1" fill-rule="nonzero"/></g><path fill="rgb(26.669312%, 24.708557%, 33.329773%)" d="M 113.222656 54.554688 L 80.363281 54.554688 C 79.339844 54.554688 78.511719 55.484375 78.511719 56.632812 L 78.511719 80.132812 L 115.074219 80.132812 L 115.074219 56.632812 C 115.074219 55.484375 114.246094 54.554688 113.222656 54.554688 " fill-opacity="1" fill-rule="nonzero"/><path fill="rgb(98.039246%, 72.549438%, 57.249451%)" d="M 97.695312 38.839844 L 99.03125 45.554688 C 99.03125 45.554688 99.863281 52.269531 94.945312 52.546875 C 90.03125 52.824219 90.097656 46.59375 90.097656 46.59375 L 90.859375 40.226562 L 97.695312 38.839844 " fill-opacity="1" fill-rule="nonzero"/><path fill="rgb(94.509888%, 62.348938%, 45.098877%)" d="M 90.773438 40.972656 C 90.773438 40.972656 92.621094 41.875 94.59375 41.292969 C 96.5625 40.710938 97.695312 38.839844 97.695312 38.839844 L 98.121094 40.972656 C 98.121094 40.972656 97.855469 43.296875 95.132812 45.234375 C 92.40625 47.171875 90.207031 45.699219 90.207031 45.699219 L 90.773438 40.972656 " fill-opacity="1" fill-rule="nonzero"/><path fill="rgb(96.469116%, 53.329468%, 19.999695%)" d="M 96.125 21.675781 C 96.125 21.675781 95.847656 24.792969 97.648438 26.59375 C 99.449219 28.390625 100.234375 33.074219 99.386719 35.246094 C 103.949219 31.921875 104.503906 29.429688 103.671875 27.492188 C 102.839844 25.554688 101.523438 22.714844 101.523438 20.5 C 101.523438 18.285156 101.136719 12.335938 94.164062 11.226562 C 87.191406 10.117188 83.328125 12.542969 82.382812 14.757812 C 81.441406 16.972656 79.089844 20.777344 79.019531 23.6875 C 78.949219 26.59375 80.402344 27.699219 80.820312 29.570312 C 81.234375 31.4375 80.957031 34.066406 83.796875 36.421875 C 86.636719 38.773438 87.53125 38.503906 87.53125 38.503906 C 87.53125 38.503906 84.90625 34.550781 84.835938 32.476562 C 84.765625 30.398438 85.597656 29.570312 86.082031 27.628906 C 86.566406 25.691406 85.734375 23.0625 88.019531 21.539062 C 90.304688 20.015625 93.078125 22.855469 96.125 21.675781 " fill-opacity="1" fill-rule="nonzero"/><path fill="rgb(96.469116%, 53.329468%, 19.999695%)" d="M 85.613281 12.207031 C 85.613281 12.207031 80.726562 12.207031 81.28125 5.734375 C 81.722656 0.582031 88.808594 -0.0078125 90.542969 5.148438 C 92.28125 10.304688 89.222656 11.652344 89.222656 11.652344 L 85.613281 12.207031 " fill-opacity="1" fill-rule="nonzero"/><path fill="rgb(94.509888%, 62.348938%, 45.098877%)" d="M 80.296875 87.042969 L 112.414062 102.574219 L 110.820312 105.609375 C 110.820312 105.609375 83.539062 103.5 74.574219 98.644531 C 65.605469 93.792969 68.277344 83.457031 80.296875 87.042969 " fill-opacity="1" fill-rule="nonzero"/><path fill="rgb(94.509888%, 62.348938%, 45.098877%)" d="M 111.75 102.308594 C 111.75 102.308594 117.097656 103.972656 119.535156 105.660156 C 121.972656 107.347656 120.585938 108.953125 118.835938 109.320312 C 117.089844 109.6875 112.21875 108.429688 110.691406 105.445312 C 109.160156 102.460938 111.75 102.308594 111.75 102.308594 " fill-opacity="1" fill-rule="nonzero"/><path fill="rgb(98.039246%, 72.549438%, 57.249451%)" d="M 113.332031 87.042969 L 81.214844 102.574219 L 82.808594 105.609375 C 82.808594 105.609375 110.089844 103.5 119.054688 98.644531 C 128.023438 93.792969 125.351562 83.457031 113.332031 87.042969 " fill-opacity="1" fill-rule="nonzero"/><path fill="rgb(98.039246%, 72.549438%, 57.249451%)" d="M 81.878906 102.308594 C 81.878906 102.308594 76.53125 103.972656 74.09375 105.660156 C 71.65625 107.347656 73.042969 108.953125 74.789062 109.320312 C 76.535156 109.6875 81.410156 108.429688 82.9375 105.445312 C 84.46875 102.460938 81.878906 102.308594 81.878906 102.308594 " fill-opacity="1" fill-rule="nonzero"/><path fill="rgb(96.469116%, 53.329468%, 19.999695%)" d="M 41.25 66.574219 L 41.25 80.132812 L 38.144531 80.132812 L 36.351562 66.574219 L 41.25 66.574219 " fill-opacity="1" fill-rule="nonzero"/><path fill="rgb(26.669312%, 24.708557%, 33.329773%)" d="M 41.25 66.574219 L 35.921875 66.574219 L 35.921875 65.371094 L 37.226562 65.371094 L 37.65625 64.796875 L 41.25 64.796875 L 41.25 66.574219 " fill-opacity="1" fill-rule="nonzero"/><path fill="rgb(96.469116%, 53.329468%, 19.999695%)" d="M 41.25 66.574219 L 41.25 80.132812 L 44.351562 80.132812 L 46.148438 66.574219 L 41.25 66.574219 " fill-opacity="1" fill-rule="nonzero"/><path fill="rgb(26.669312%, 24.708557%, 33.329773%)" d="M 41.25 66.574219 L 46.578125 66.574219 L 46.578125 65.371094 L 45.269531 65.371094 L 44.839844 64.796875 L 41.25 64.796875 L 41.25 66.574219 " fill-opacity="1" fill-rule="nonzero"/><path fill="rgb(21.958923%, 20.388794%, 28.239441%)" d="M 78.511719 78.734375 L 115.074219 67.753906 L 115.074219 80.132812 L 78.511719 80.132812 L 78.511719 78.734375 " fill-opacity="1" fill-rule="nonzero"/><path fill="rgb(100%, 100%, 100%)" d="M 158.101562 74.136719 C 158.101562 74.136719 158.804688 75.542969 158.804688 76.914062 C 158.804688 78.28125 158.453125 79.417969 158.453125 79.417969 L 190.109375 79.617188 C 190.109375 79.617188 192.183594 78.5625 191.792969 76.878906 C 191.402344 75.191406 190.421875 73.871094 190.421875 73.871094 L 158.101562 74.136719 " fill-opacity="1" fill-rule="nonzero"/><path fill="rgb(94.509888%, 30.589294%, 27.059937%)" d="M 190.621094 74.386719 L 157.828125 74.386719 L 157.828125 73.355469 L 190.621094 73.355469 L 190.621094 74.386719 " fill-opacity="1" fill-rule="nonzero"/><path fill="rgb(94.509888%, 30.589294%, 27.059937%)" d="M 190.621094 80.132812 L 157.828125 80.132812 L 157.828125 79.101562 L 190.621094 79.101562 L 190.621094 80.132812 " fill-opacity="1" fill-rule="nonzero"/><path fill="rgb(94.509888%, 30.589294%, 27.059937%)" d="M 190.621094 73.355469 C 190.621094 73.355469 192.28125 74.441406 192.28125 76.816406 C 192.28125 79.191406 190.621094 80.132812 190.621094 80.132812 L 190.199219 79.101562 C 190.199219 79.101562 191.242188 78.574219 191.242188 76.875 C 191.242188 75.171875 189.90625 74.058594 189.90625 74.058594 L 190.621094 73.355469 " fill-opacity="1" fill-rule="nonzero"/><path fill="rgb(100%, 100%, 100%)" d="M 192.007812 69.664062 C 192.007812 69.664062 191.304688 70.53125 191.304688 71.371094 C 191.304688 72.214844 191.65625 72.914062 191.65625 72.914062 L 159.996094 73.035156 C 159.996094 73.035156 157.925781 72.386719 158.316406 71.351562 C 158.707031 70.3125 159.683594 69.5 159.683594 69.5 L 192.007812 69.664062 " fill-opacity="1" fill-rule="nonzero"/><path fill="rgb(42.349243%, 80.389404%, 75.689697%)" d="M 159.488281 69.820312 L 192.28125 69.820312 L 192.28125 69.183594 L 159.488281 69.183594 L 159.488281 69.820312 " fill-opacity="1" fill-rule="nonzero"/><path fill="rgb(42.349243%, 80.389404%, 75.689697%)" d="M 159.488281 73.355469 L 192.28125 73.355469 L 192.28125 72.71875 L 159.488281 72.71875 L 159.488281 73.355469 " fill-opacity="1" fill-rule="nonzero"/><path fill="rgb(42.349243%, 80.389404%, 75.689697%)" d="M 159.488281 69.183594 C 159.488281 69.183594 157.824219 69.851562 157.824219 71.3125 C 157.824219 72.773438 159.488281 73.355469 159.488281 73.355469 L 159.910156 72.71875 C 159.910156 72.71875 158.867188 72.394531 158.867188 71.347656 C 158.867188 70.300781 160.203125 69.617188 160.203125 69.617188 L 159.488281 69.183594 " fill-opacity="1" fill-rule="nonzero"/><path fill="rgb(100%, 100%, 100%)" d="M 170.210938 64.550781 C 170.210938 64.550781 170.640625 65.636719 170.640625 66.695312 C 170.640625 67.75 170.425781 68.628906 170.425781 68.628906 L 189.765625 68.78125 C 189.765625 68.78125 191.035156 67.96875 190.792969 66.667969 C 190.558594 65.363281 189.957031 64.34375 189.957031 64.34375 L 170.210938 64.550781 " fill-opacity="1" fill-rule="nonzero"/><path fill="rgb(26.669312%, 24.708557%, 33.329773%)" d="M 190.078125 64.742188 L 170.042969 64.742188 L 170.042969 63.945312 L 190.078125 63.945312 L 190.078125 64.742188 " fill-opacity="1" fill-rule="nonzero"/><path fill="rgb(26.669312%, 24.708557%, 33.329773%)" d="M 190.078125 69.183594 L 170.042969 69.183594 L 170.042969 68.382812 L 190.078125 68.382812 L 190.078125 69.183594 " fill-opacity="1" fill-rule="nonzero"/><path fill="rgb(26.669312%, 24.708557%, 33.329773%)" d="M 190.078125 63.945312 C 190.078125 63.945312 191.09375 64.78125 191.09375 66.617188 C 191.09375 68.453125 190.078125 69.183594 190.078125 69.183594 L 189.820312 68.382812 C 189.820312 68.382812 190.457031 67.980469 190.457031 66.664062 C 190.457031 65.347656 189.640625 64.488281 189.640625 64.488281 L 190.078125 63.945312 " fill-opacity="1" fill-rule="nonzero"/><path fill="rgb(96.469116%, 53.329468%, 19.999695%)" d="M 179.777344 54.140625 L 179.777344 63.945312 L 183.953125 63.945312 L 185.332031 54.140625 L 179.777344 54.140625 " fill-opacity="1" fill-rule="nonzero"/><path fill="rgb(96.469116%, 53.329468%, 19.999695%)" d="M 179.777344 54.140625 L 179.777344 63.945312 L 175.601562 63.945312 L 174.222656 54.140625 L 179.777344 54.140625 " fill-opacity="1" fill-rule="nonzero"/><path fill="rgb(49.01886%, 82.749939%, 80.389404%)" d="M 179.777344 54.140625 C 179.777344 54.140625 179.492188 48.070312 182.554688 42.164062 C 185.617188 36.257812 191.84375 30.191406 191.84375 30.191406 C 191.84375 30.191406 190.167969 37.875 186.566406 43.964844 C 182.964844 50.054688 179.777344 54.140625 179.777344 54.140625 " fill-opacity="1" fill-rule="nonzero"/><g clip-path="url(#clip-2)"><path fill="rgb(49.01886%, 82.749939%, 80.389404%)" d="M 179.773438 54.140625 C 179.773438 54.140625 182.503906 48.710938 188.070312 45.0625 C 193.636719 41.417969 202.035156 39.175781 202.035156 39.175781 C 202.035156 39.175781 196.808594 45.050781 190.683594 48.597656 C 184.558594 52.140625 179.773438 54.140625 179.773438 54.140625 " fill-opacity="1" fill-rule="nonzero"/></g><path fill="rgb(49.01886%, 82.749939%, 80.389404%)" d="M 179.769531 54.140625 C 179.769531 54.140625 180.058594 48.070312 176.992188 42.164062 C 173.929688 36.257812 167.703125 30.191406 167.703125 30.191406 C 167.703125 30.191406 169.382812 37.875 172.980469 43.964844 C 176.582031 50.054688 179.769531 54.140625 179.769531 54.140625 " fill-opacity="1" fill-rule="nonzero"/><path fill="rgb(49.01886%, 82.749939%, 80.389404%)" d="M 179.769531 54.140625 C 179.769531 54.140625 177.042969 48.710938 171.476562 45.0625 C 165.910156 41.414062 157.507812 39.175781 157.507812 39.175781 C 157.507812 39.175781 162.738281 45.050781 168.863281 48.597656 C 174.992188 52.140625 179.769531 54.140625 179.769531 54.140625 " fill-opacity="1" fill-rule="nonzero"/><path fill="rgb(26.669312%, 24.708557%, 33.329773%)" d="M 101.039062 149.054688 L 94.59375 149.054688 L 94.59375 113.109375 L 101.039062 113.109375 L 101.039062 149.054688 " fill-opacity="1" fill-rule="nonzero"/><path fill="rgb(26.669312%, 24.708557%, 33.329773%)" d="M 78.535156 113.109375 C 78.535156 113.109375 85.554688 115.257812 98.078125 115.257812 C 110.597656 115.257812 117.246094 113.109375 117.246094 113.109375 L 78.535156 113.109375 " fill-opacity="1" fill-rule="nonzero"/><path fill="rgb(26.669312%, 24.708557%, 33.329773%)" d="M 98.078125 149.054688 L 83.910156 156.855469 L 95.640625 146.886719 Z M 98.078125 149.054688 " fill-opacity="1" fill-rule="nonzero"/><g clip-path="url(#clip-3)"><path fill="rgb(26.669312%, 24.708557%, 33.329773%)" d="M 87.28125 157.777344 C 87.28125 156.273438 86.0625 155.054688 84.558594 155.054688 C 83.054688 155.054688 81.835938 156.273438 81.835938 157.777344 C 81.835938 159.28125 83.054688 160.5 84.558594 160.5 C 86.0625 160.5 87.28125 159.28125 87.28125 157.777344 " fill-opacity="1" fill-rule="nonzero"/></g><path fill="rgb(26.669312%, 24.708557%, 33.329773%)" d="M 98.078125 149.054688 L 112.242188 156.855469 L 100.515625 146.886719 Z M 98.078125 149.054688 " fill-opacity="1" fill-rule="nonzero"/><g clip-path="url(#clip-4)"><path fill="rgb(26.669312%, 24.708557%, 33.329773%)" d="M 108.871094 157.777344 C 108.871094 156.273438 110.089844 155.054688 111.59375 155.054688 C 113.097656 155.054688 114.316406 156.273438 114.316406 157.777344 C 114.316406 159.28125 113.097656 160.5 111.59375 160.5 C 110.089844 160.5 108.871094 159.28125 108.871094 157.777344 " fill-opacity="1" fill-rule="nonzero"/></g></svg>